<?xml version="1.0" encoding="utf-8"?>
<!-- Generator: Adobe Illustrator 21.0.0, SVG Export Plug-In . SVG Version: 6.00 Build 0)  -->
<svg version="1.1" id="Layer_1" xmlns="http://www.w3.org/2000/svg" xmlns:xlink="http://www.w3.org/1999/xlink" x="0px" y="0px"
	 viewBox="0 0 100 100" style="enable-background:new 0 0 100 100;" xml:space="preserve">
<style type="text/css">
	.st0{fill:#FFFFFF;}
	.st1{fill:#42B3D1;}
	.st2{fill:#EBA8A0;}
	.st3{fill:#83CFEE;}
	.st4{fill:#C8DB57;}
	.st5{fill:#F3BC5A;}
	.st6{fill:#C0C0C0;}
	.st7{fill:#8A8387;}
	.st8{fill:#0099CC;}
</style>
<g>
	<g>
		<g>
			<g>
				
					<rect x="21.5" y="15.5" transform="matrix(1 -1.378651e-03 1.378651e-03 1 -6.888517e-02 6.898020e-02)" class="st0" width="56.9" height="69.1"/>
				<g>
					
						<rect x="24.8" y="63.6" transform="matrix(1 -1.380296e-03 1.380296e-03 1 -8.883497e-02 5.120654e-02)" class="st1" width="24.5" height="1.5"/>
					
						<rect x="24.8" y="66" transform="matrix(1 -1.380486e-03 1.380486e-03 1 -9.205630e-02 5.122028e-02)" class="st1" width="24.5" height="1.5"/>
					
						<rect x="24.8" y="68.3" transform="matrix(1 -1.384103e-03 1.384103e-03 1 -9.551533e-02 5.136153e-02)" class="st1" width="24.5" height="1.5"/>
					
						<rect x="24.8" y="70.6" transform="matrix(1 -1.391822e-03 1.391822e-03 1 -9.928372e-02 5.165486e-02)" class="st1" width="24.5" height="1.5"/>
					
						<rect x="24.8" y="72.9" transform="matrix(1 -1.379438e-03 1.379438e-03 1 -0.1016 5.120135e-02)" class="st1" width="24.5" height="1.5"/>
					
						<rect x="24.8" y="75.3" transform="matrix(1 -1.381342e-03 1.381342e-03 1 -0.105 5.127876e-02)" class="st1" width="24.5" height="1.5"/>
					
						<rect x="24.8" y="77.6" transform="matrix(1 -1.398494e-03 1.398494e-03 1 -0.1095 5.192325e-02)" class="st1" width="24.5" height="1.5"/>
					
						<rect x="24.8" y="79.9" transform="matrix(1 -1.391822e-03 1.391822e-03 1 -0.1122 5.168182e-02)" class="st1" width="24.5" height="1.5"/>
				</g>
				<g>
					
						<rect x="51.9" y="63.6" transform="matrix(1 -1.384103e-03 1.384103e-03 1 -8.900197e-02 8.887840e-02)" class="st1" width="24.5" height="1.5"/>
					
						<rect x="51.9" y="65.9" transform="matrix(1 -1.384103e-03 1.384103e-03 1 -9.221942e-02 8.888510e-02)" class="st1" width="24.5" height="1.5"/>
					
						<rect x="51.9" y="68.2" transform="matrix(1 -1.390776e-03 1.390776e-03 1 -9.589705e-02 8.932048e-02)" class="st1" width="24.5" height="1.5"/>
					
						<rect x="52" y="70.6" transform="matrix(1 -1.393535e-03 1.393535e-03 1 -9.932718e-02 8.950473e-02)" class="st1" width="24.5" height="1.5"/>
					
						<rect x="52" y="72.9" transform="matrix(1 -1.391822e-03 1.391822e-03 1 -0.1024 8.940125e-02)" class="st1" width="24.5" height="1.5"/>
					
						<rect x="52" y="75.2" transform="matrix(1 -1.372766e-03 1.372766e-03 1 -0.1042 8.818290e-02)" class="st1" width="24.5" height="1.5"/>
					
						<rect x="52" y="77.5" transform="matrix(1 -1.402301e-03 1.402301e-03 1 -0.1097 9.008846e-02)" class="st1" width="24.5" height="1.5"/>
					
						<rect x="52" y="79.9" transform="matrix(1 -1.391822e-03 1.391822e-03 1 -0.1121 8.942149e-02)" class="st1" width="24.5" height="1.5"/>
				</g>
				
					<rect x="24.8" y="53.9" transform="matrix(1 -1.393223e-03 1.393223e-03 1 -7.746315e-02 3.776165e-02)" class="st2" width="4.5" height="3.4"/>
				
					<rect x="24.8" y="58.9" transform="matrix(1 -1.370965e-03 1.370965e-03 1 -8.306015e-02 3.717171e-02)" class="st3" width="4.5" height="3.4"/>
				
					<rect x="51.2" y="53.9" transform="matrix(1 -1.335286e-03 1.335286e-03 1 -7.417081e-02 7.136144e-02)" class="st4" width="4.5" height="3.4"/>
				
					<rect x="51.2" y="58.9" transform="matrix(1 -1.367891e-03 1.367891e-03 1 -8.279902e-02 7.311939e-02)" class="st5" width="4.5" height="3.4"/>
				
					<rect x="31.7" y="55" transform="matrix(1 -1.410716e-03 1.410716e-03 1 -7.848985e-02 4.857757e-02)" class="st6" width="5.3" height="1.4"/>
				
					<rect x="31.8" y="60.1" transform="matrix(1 -1.351276e-03 1.351276e-03 1 -8.205574e-02 4.654264e-02)" class="st6" width="5.3" height="1.3"/>
				
					<rect x="57.5" y="54.9" transform="matrix(1 -1.355239e-03 1.355239e-03 1 -7.533238e-02 8.162951e-02)" class="st6" width="5.3" height="1.4"/>
				
					<rect x="57.6" y="60.1" transform="matrix(1 -1.362292e-03 1.362292e-03 1 -8.265205e-02 8.206885e-02)" class="st6" width="5.3" height="1.3"/>
				<g>
					<g>
						<path class="st7" d="M43.3,20.3c0.3,0,0.8-0.1,1.3-0.1c0.8,0,1.3,0.1,1.7,0.4c0.4,0.3,0.7,0.7,0.7,1.4c0,0.7-0.3,1.2-0.7,1.5
							c-0.4,0.3-1.1,0.5-1.9,0.5c-0.5,0-0.8,0-1.1-0.1L43.3,20.3z M44.3,23.3c0.1,0,0.2,0,0.3,0c0.9,0,1.4-0.4,1.4-1.3
							c0-0.8-0.5-1.2-1.3-1.2c-0.2,0-0.3,0-0.4,0L44.3,23.3z"/>
						<path class="st7" d="M48.5,23L48.2,24l-1,0l1.3-3.7l1.2,0l1.3,3.7l-1,0L49.7,23L48.5,23z M49.5,22.4l-0.3-0.8
							c-0.1-0.2-0.1-0.5-0.2-0.7l0,0c-0.1,0.2-0.1,0.5-0.2,0.7l-0.2,0.8L49.5,22.4z"/>
						<path class="st7" d="M51.9,21l-1.1,0l0-0.7l3.2,0l0,0.7l-1.1,0l0,3l-0.9,0L51.9,21z"/>
						<path class="st7" d="M55,23l-0.3,0.9l-1,0l1.3-3.7l1.2,0l1.3,3.7l-1,0L56.2,23L55,23z M56,22.4l-0.3-0.8
							c-0.1-0.2-0.1-0.5-0.2-0.7l0,0c-0.1,0.2-0.1,0.5-0.2,0.7l-0.2,0.8L56,22.4z"/>
					</g>
				</g>
				<g>
					<g>
						<path class="st8" d="M24.2,27l0,24.8l6.5,0l43.9-0.1l1.9,0l0-24.8L24.2,27z M56.4,28.1l8.1,0l0,4.7l-8.1,0L56.4,28.1z
							 M36.4,28.2l8.1,0l0,4.7l-8.1,0L36.4,28.2z M34.5,50.7L34.5,50.7l-2.3,0l-2.2,0l-3.4,0l-0.7,0l0-1l0-1.7l0-1l0-0.6l0,0l5.8,0
							c0,0,0,0,0,0l2.7,0c0,0,0,0,0,0l0,0L34.5,50.7z M34.5,44.7c-0.1,0-0.1,0.1-0.2,0.1l0,0.3l-0.6,0l-7.6,0l-0.2,0l0-5l0.2,0l0,0
							l8.1,0l0,0l0.2,0L34.5,44.7z M34.5,39l-8.6,0l0-5l8.6,0L34.5,39z M34.5,32.8l-8.6,0l0-4.7l8.6,0L34.5,32.8z M44.5,50.7l-8.1,0
							l0-4.4l8.1,0L44.5,50.7z M44.5,45.2L44.5,45.2l-8.1,0l-0.1,0l0-1.6c0,0,0,0,0,0l0-3.4l0,0l0,0l8.1,0L44.5,45.2z M44.5,39
							l-0.3,0c0,0,0,0,0,0l-7.8,0l0-5l8.1,0l0,0.3l0,0L44.5,39z M54.5,50.7l-8.1,0l0-4.4l8.1,0L54.5,50.7z M54.5,45.1l-8.1,0l0-4.9
							l0,0l0-0.1l8.1,0l0,2.1l0,0L54.5,45.1z M54.5,39l-8.1,0l0,0l0-5l8.1,0L54.5,39z M54.5,32.8l-8.1,0l0-4.7l8.1,0L54.5,32.8z
							 M64.5,50.7l-8.1,0l0-4.4l8.1,0L64.5,50.7z M64.6,44.8L64.6,44.8l0,0.3l-8.1,0l0-2.5l0,0l0-1.2l0,0l0-1.3l0,0l0,0l8.1,0
							L64.6,44.8z M64.5,39l-1.4,0l-6.7,0l0-5l8.1,0l0,0.3L64.5,39z M74.5,50.6l-8.1,0l0-4.4l8.1,0L74.5,50.6z M74.5,45.1l-8.1,0
							l0-5l8.1,0L74.5,45.1z M74.6,38.6l0,0.3l-0.1,0l-8.1,0l0-5l1.6,0l0,0l2.2,0l0,0l4.4,0l0,0l0.1,0L74.6,38.6z M74.6,32.8l-0.1,0
							l0,0l-3.2,0l0,0l-2.2,0l-2.6,0l-0.1,0l0-4.7l0.1,0l7.1,0l1,0L74.6,32.8z"/>
					</g>
				</g>
				<polygon class="st2" points="25.9,50.4 25.2,49.6 35.3,42.8 40.9,45.2 50.7,39.1 55.5,42.8 62.7,32.8 75.6,43.2 74.8,43.9 
					62.9,34.3 55.8,44.3 50.6,40.3 41,46.4 35.4,44 				"/>
				<polygon class="st3" points="60.5,42.5 49.6,36 42.6,38.7 38.4,38.3 31,41.3 25.3,42.5 25.1,41.5 30.6,40.4 38.2,37.3 
					42.4,37.7 49.7,34.9 60.5,41.4 75.3,34.5 75.8,35.4 				"/>
				<polygon class="st4" points="40.3,48.5 30.6,43.6 25.1,46.1 24.5,45.2 30.7,42.5 40.3,47.4 50.5,42.9 58.6,46.7 69.3,41.1 
					75.4,39.6 75.7,40.6 69.7,42 58.7,47.8 50.5,44 				"/>
				<polygon class="st5" points="25.3,47.8 24.8,46.9 39.6,40.6 42.8,41.7 57.6,31.1 62.9,36.1 75.3,28.7 75.9,29.5 62.7,37.4 
					57.5,32.4 43,42.8 39.7,41.7 				"/>
				
					<rect x="24.2" y="28.9" transform="matrix(1 -1.368172e-03 1.368172e-03 1 -5.467118e-02 3.431325e-02)" class="st8" width="1.8" height="22.1"/>
				
					<rect x="74.5" y="27" transform="matrix(1 -1.365233e-03 1.365233e-03 1 -5.369982e-02 0.103)" class="st8" width="1.9" height="24.8"/>
			</g>
		</g>
	</g>
</g>
</svg>
