<?xml version="1.0" encoding="utf-8"?>
<!-- Generator: Adobe Illustrator 21.0.0, SVG Export Plug-In . SVG Version: 6.00 Build 0)  -->
<svg version="1.1" id="Layer_1" xmlns="http://www.w3.org/2000/svg" xmlns:xlink="http://www.w3.org/1999/xlink" x="0px" y="0px"
	 viewBox="0 0 30 22" style="enable-background:new 0 0 30 22;" xml:space="preserve">
<style type="text/css">
	.st0{fill:#FFFFFF;}
</style>
<path class="st0" d="M29,10L15.6,0.5c0,0,0,0-0.1,0c-0.3-0.2-0.8-0.2-1.1,0L1,9.9c-0.3,0.2-0.4,0.6-0.1,0.9C1.1,10.9,1.3,11,1.5,11
	c0.2,0,0.4-0.1,0.5-0.2l2.4-1.7v11.1c0,0.9,0.9,1.6,2,1.6h4.2c1,0,1.9-0.7,1.9-1.5v-5.6c0-0.1,0.1-0.2,0.3-0.2h4.3
	c0.2,0,0.3,0.1,0.3,0.2v5.6c0,0.8,0.8,1.5,1.9,1.5h4.2c1.1,0,2-0.9,2-2V9.2l2.4,1.7c0.2,0.1,0.3,0.2,0.5,0.2c0.2,0,0.4-0.1,0.6-0.2
	C29.4,10.6,29.4,10.2,29,10L29,10z M24,13v6.7c0,0.4-0.3,0.7-0.4,0.7h-4.2c-0.2,0-0.3-0.1-0.3-0.2v-5.6c0-0.8-0.8-1.5-1.9-1.5h-4.3
	c-1,0-1.9,0.7-1.9,1.5v5.6c0,0.1-0.1,0.2-0.3,0.2H6.4c-0.2,0-0.4-0.1-0.4-0.3V8L15,1.7l9,6.3V13z M24,13"/>
</svg>
