<?xml version="1.0" encoding="utf-8"?>
<!-- Generator: Adobe Illustrator 21.0.0, SVG Export Plug-In . SVG Version: 6.00 Build 0)  -->
<svg version="1.1" id="Layer_1" xmlns="http://www.w3.org/2000/svg" xmlns:xlink="http://www.w3.org/1999/xlink" x="0px" y="0px"
	 viewBox="0 0 30 22" style="enable-background:new 0 0 30 22;" xml:space="preserve">
<style type="text/css">
	.st0{fill:#FFFFFF;stroke:#FFFFFF;stroke-width:0.5;stroke-miterlimit:10;}
</style>
<g>
	<path class="st0" d="M24.2,16.7c-0.1,0-0.2,0-0.3-0.1l-5.5-5.1c-0.2-0.2-0.2-0.5,0-0.7c0.2-0.2,0.5-0.2,0.7,0l5.5,5.1
		c0.2,0.2,0.2,0.5,0,0.7C24.4,16.7,24.3,16.7,24.2,16.7L24.2,16.7z M24.2,16.7"/>
	<path class="st0" d="M5.8,16.7c-0.1,0-0.3,0-0.3-0.1c-0.2-0.2-0.2-0.5,0-0.7l5.5-5.1c0.2-0.2,0.5-0.2,0.7,0c0.2,0.2,0.2,0.5,0,0.7
		l-5.5,5.1C6.1,16.7,6,16.7,5.8,16.7L5.8,16.7z M5.8,16.7"/>
	<path class="st0" d="M27.4,21.5H2.6c-1.3,0-2.4-1.1-2.4-2.4V2.9c0-1.3,1.1-2.4,2.4-2.4h24.8c1.3,0,2.4,1.1,2.4,2.4v16.2
		C29.8,20.4,28.7,21.5,27.4,21.5L27.4,21.5z M2.6,1.5c-0.8,0-1.4,0.6-1.4,1.4v16.2c0,0.8,0.6,1.4,1.4,1.4h24.8
		c0.8,0,1.4-0.6,1.4-1.4V2.9c0-0.8-0.6-1.4-1.4-1.4H2.6z M2.6,1.5"/>
	<path class="st0" d="M15,13.4c-0.6,0-1.3-0.2-1.8-0.6L1,2.1C0.8,1.9,0.8,1.6,1,1.4c0.2-0.2,0.5-0.2,0.7,0L13.9,12
		c0.6,0.5,1.6,0.5,2.2,0L28.4,1.4c0.2-0.2,0.5-0.2,0.7,0c0.2,0.2,0.2,0.5,0,0.7L16.8,12.8C16.3,13.2,15.6,13.4,15,13.4L15,13.4z
		 M15,13.4"/>
</g>
</svg>
