<?xml version="1.0" encoding="utf-8"?>
<!-- Generator: Adobe Illustrator 21.0.0, SVG Export Plug-In . SVG Version: 6.00 Build 0)  -->
<svg version="1.1" id="Layer_1" xmlns="http://www.w3.org/2000/svg" xmlns:xlink="http://www.w3.org/1999/xlink" x="0px" y="0px"
	 viewBox="0 0 30 27" style="enable-background:new 0 0 30 27;" xml:space="preserve">
<style type="text/css">
	.st0{fill:#FFFFFF;stroke:#FFFFFF;stroke-width:0.5;stroke-miterlimit:10;}
</style>
<path class="st0" d="M22.8,26.4c-1.1,0-2.4-0.3-3.8-0.8c-3.1-1.2-6.5-3.5-9.6-6.6c-3.1-3-5.4-6.4-6.6-9.6c-1.1-2.8-1.1-5.2,0-6.2
	C3,3.1,3.2,2.9,3.4,2.7c1-1,2.1-2.2,3.5-2.1c1,0,2,0.7,3,1.9c3,3.7,1.6,5,0.1,6.5L9.7,9.3c-0.2,0.3-0.7,1.4,3.7,5.8
	c1.4,1.4,2.7,2.5,3.7,3.1c0.6,0.4,1.7,1,2.2,0.6l0.3-0.3c1.5-1.5,2.8-2.9,6.5,0.1c1.2,1,1.9,2,1.9,3c0.1,1.5-1.1,2.6-2.1,3.5
	c-0.2,0.2-0.3,0.3-0.5,0.5C24.8,26.1,23.9,26.4,22.8,26.4L22.8,26.4z M6.8,1.5c-1,0-2,1-2.8,1.9C3.8,3.5,3.7,3.7,3.5,3.8
	C2.7,4.6,2.8,6.7,3.7,9.2c1.1,3,3.4,6.3,6.4,9.3c3,3,6.3,5.2,9.3,6.4c2.4,0.9,4.5,1,5.3,0.2c0.2-0.2,0.3-0.3,0.5-0.5
	c0.9-0.8,1.9-1.8,1.9-2.9c0-0.7-0.6-1.5-1.6-2.3c-3.1-2.5-3.9-1.6-5.3-0.2l-0.3,0.3c-0.7,0.7-1.8,0.5-3.3-0.4
	c-1-0.7-2.3-1.8-3.8-3.3c-3.7-3.7-4.9-5.9-3.7-7.1l0.3-0.3c1.4-1.4,2.3-2.3-0.1-5.3C8.4,2,7.6,1.5,6.8,1.5C6.8,1.5,6.8,1.5,6.8,1.5
	L6.8,1.5z M6.8,1.5"/>
</svg>
