<?xml version="1.0" encoding="utf-8"?>
<!-- Generator: Adobe Illustrator 21.0.0, SVG Export Plug-In . SVG Version: 6.00 Build 0)  -->
<svg version="1.1" id="Layer_1" xmlns="http://www.w3.org/2000/svg" xmlns:xlink="http://www.w3.org/1999/xlink" x="0px" y="0px"
	 viewBox="0 0 100 100" style="enable-background:new 0 0 100 100;" xml:space="preserve">
<style type="text/css">
	.st0{fill:#ECF6F8;}
	.st1{fill:#0099CC;}
	.st2{fill:#006699;}
	.st3{fill:#CF972A;}
	.st4{fill:#E4A724;}
</style>
<g>
	<path class="st0" d="M56.3,44.4c0,0,6.9-5,8.9-7c2-2,2-4.8,2-4.8V22.5l-17-1.2v0l-0.3,0l-0.3,0v0l-17,1.2v10.1c0,0,0,2.8,2,4.8
		c2,2,8.9,7,8.9,7s2,1.5,2.2,5.6c-0.2,4.2-2.2,5.6-2.2,5.6s-6.9,5-8.9,7c-2,2-2,4.8-2,4.8v10.1l17,1.2v0l0.3,0l0.3,0v0l17-1.2V67.4
		c0,0,0-2.8-2-4.8c-2-2-8.9-7-8.9-7s-2-1.5-2.2-5.6C54.3,45.8,56.3,44.4,56.3,44.4z"/>
	<g>
		<path class="st1" d="M31.6,17.2c-0.6,0-1,0.5-1,1v4.4c0,0.6,0.5,1,1,1l18.4,0v-6.4L31.6,17.2z"/>
		<path class="st2" d="M69.4,22.6v-4.4c0-0.6-0.5-1-1-1H50v6.4h18.4C69,23.6,69.4,23.2,69.4,22.6z"/>
		<path class="st2" d="M68.4,82.8c0.6,0,1-0.5,1-1v-4.4c0-0.6-0.5-1-1-1H50v6.4H68.4z"/>
		<path class="st1" d="M30.6,77.4v4.4c0,0.6,0.5,1,1,1H50v-6.4H31.6C31,76.4,30.6,76.8,30.6,77.4z"/>
	</g>
	<g>
		<g>
			<path class="st1" d="M36,29.9c0,0.7,0.4,4.9,3.9,7.7c3.9,3.1,10.2,7.2,10.2,7.2V29.9H36z"/>
		</g>
		<g>
			<path class="st2" d="M64,29.9c0,0.7-0.4,4.9-3.9,7.7C56.3,40.7,50,44.8,50,44.8V29.9H64z"/>
		</g>
	</g>
	<g>
		<g>
			<path class="st2" d="M64,72.2c0-0.7-0.4-4.9-3.9-7.7C56.3,61.4,50,57.2,50,57.2v14.9H64z"/>
		</g>
		<g>
			<path class="st1" d="M36,72.2c0-0.7,0.4-4.9,3.9-7.7c3.9-3.1,10.2-7.2,10.2-7.2v14.9H36z"/>
		</g>
	</g>
	<g>
		<path class="st3" d="M50.4,46.7c0-0.2-0.2-0.4-0.4-0.4v0.9C50.2,47.1,50.4,46.9,50.4,46.7z"/>
		<path class="st4" d="M49.6,46.7c0,0.2,0.2,0.4,0.4,0.4v-0.9C49.8,46.2,49.6,46.4,49.6,46.7z"/>
		<path class="st4" d="M49.6,50.5c0,0.2,0.2,0.4,0.4,0.4v-0.9C49.8,50.1,49.6,50.3,49.6,50.5z"/>
		<path class="st3" d="M50.4,50.5c0-0.2-0.2-0.4-0.4-0.4v0.9C50.2,50.9,50.4,50.7,50.4,50.5z"/>
		<path class="st3" d="M50.4,54.3c0-0.2-0.2-0.4-0.4-0.4v0.9C50.2,54.8,50.4,54.6,50.4,54.3z"/>
		<path class="st4" d="M49.6,54.3c0,0.2,0.2,0.4,0.4,0.4v-0.9C49.8,53.9,49.6,54.1,49.6,54.3z"/>
	</g>
</g>
</svg>
