<?xml version="1.0" encoding="utf-8"?>
<!-- Generator: Adobe Illustrator 21.0.0, SVG Export Plug-In . SVG Version: 6.00 Build 0)  -->
<svg version="1.1" id="Layer_1" xmlns="http://www.w3.org/2000/svg" xmlns:xlink="http://www.w3.org/1999/xlink" x="0px" y="0px"
	 viewBox="0 0 100 100" style="enable-background:new 0 0 100 100;" xml:space="preserve">
<style type="text/css">
	.st0{fill:#FFFFFF;}
	.st1{fill:#0099CC;}
	.st2{fill:#006699;}
	.st3{fill:#006A87;}
	.st4{fill:#00CCFF;}
</style>
<g>
	<g>
		<rect x="15" y="29.8" class="st0" width="13.8" height="30.2"/>
		<rect x="36.9" y="22.2" class="st0" width="13.8" height="37.7"/>
		<rect x="58.9" y="11.7" class="st0" width="13.8" height="48.3"/>
	</g>
	<g>
		<path class="st1" d="M85.4,87c0.9,0.9,0.9,2.3,0,3.1l0,0c-0.9,0.9-2.3,0.9-3.1,0L64.4,72.2c-0.9-0.9-0.9-2.3,0-3.1l0,0
			c0.9-0.9,2.3-0.9,3.1,0L85.4,87z"/>
		
			<ellipse transform="matrix(0.7071 -0.7071 0.7071 0.7071 -24.6877 52.8585)" class="st2" cx="51.5" cy="56.2" rx="20.3" ry="20.3"/>
		<path class="st3" d="M70.7,69l-2-2c-0.8,1.3-1.7,2.5-2.9,3.6c-1.1,1.1-2.3,2.1-3.6,2.9l2,2c1.8,1.8,4.7,1.8,6.5,0
			C72.5,73.7,72.5,70.8,70.7,69z"/>
		<ellipse transform="matrix(0.7071 -0.7071 0.7071 0.7071 -24.6878 52.8631)" class="st4" cx="51.5" cy="56.2" rx="16" ry="16"/>
		<ellipse transform="matrix(0.7071 -0.7071 0.7071 0.7071 -21.5174 47.765)" class="st0" cx="46.9" cy="49.9" rx="6.4" ry="6.4"/>
	</g>
</g>
</svg>
